<svg width="32" height="32" viewBox="0 0 32 32" fill="none" xmlns="http://www.w3.org/2000/svg">
<path d="M15.9998 17.8666L19.8665 21.7333C20.1109 21.9777 20.4221 22.1 20.7998 22.1C21.1776 22.1 21.4887 21.9777 21.7332 21.7333C21.9776 21.4888 22.0998 21.1777 22.0998 20.8C22.0998 20.4222 21.9776 20.1111 21.7332 19.8666L17.8665 16L21.7332 12.1333C21.9776 11.8888 22.0998 11.5777 22.0998 11.2C22.0998 10.8222 21.9776 10.5111 21.7332 10.2666C21.4887 10.0222 21.1776 9.89996 20.7998 9.89996C20.4221 9.89996 20.1109 10.0222 19.8665 10.2666L15.9998 14.1333L12.1332 10.2666C11.8887 10.0222 11.5776 9.89996 11.1998 9.89996C10.8221 9.89996 10.5109 10.0222 10.2665 10.2666C10.0221 10.5111 9.89984 10.8222 9.89984 11.2C9.89984 11.5777 10.0221 11.8888 10.2665 12.1333L14.1332 16L10.2665 19.8666C10.0221 20.1111 9.89984 20.4222 9.89984 20.8C9.89984 21.1777 10.0221 21.4888 10.2665 21.7333C10.5109 21.9777 10.8221 22.1 11.1998 22.1C11.5776 22.1 11.8887 21.9777 12.1332 21.7333L15.9998 17.8666ZM15.9998 29.3333C14.1554 29.3333 12.4221 28.9831 10.7998 28.2826C9.17762 27.5822 7.7665 26.6324 6.5665 25.4333C5.3665 24.2333 4.41673 22.8222 3.71717 21.2C3.01762 19.5777 2.66739 17.8444 2.6665 16C2.6665 14.1555 3.01673 12.4222 3.71717 10.8C4.41762 9.17774 5.36739 7.76663 6.5665 6.56663C7.7665 5.36663 9.17762 4.41685 10.7998 3.71729C12.4221 3.01774 14.1554 2.66751 15.9998 2.66663C17.8443 2.66663 19.5776 3.01685 21.1998 3.71729C22.8221 4.41774 24.2332 5.36752 25.4332 6.56663C26.6332 7.76663 27.5834 9.17774 28.2838 10.8C28.9843 12.4222 29.3341 14.1555 29.3332 16C29.3332 17.8444 28.9829 19.5777 28.2825 21.2C27.5821 22.8222 26.6323 24.2333 25.4332 25.4333C24.2332 26.6333 22.8221 27.5835 21.1998 28.284C19.5776 28.9844 17.8443 29.3342 15.9998 29.3333ZM15.9998 26.6666C18.9776 26.6666 21.4998 25.6333 23.5665 23.5666C25.6332 21.5 26.6665 18.9777 26.6665 16C26.6665 13.0222 25.6332 10.5 23.5665 8.43329C21.4998 6.36663 18.9776 5.33329 15.9998 5.33329C13.0221 5.33329 10.4998 6.36663 8.43317 8.43329C6.3665 10.5 5.33317 13.0222 5.33317 16C5.33317 18.9777 6.3665 21.5 8.43317 23.5666C10.4998 25.6333 13.0221 26.6666 15.9998 26.6666Z" fill="black"/>
</svg>
