<svg width="32" height="32" viewBox="0 0 32 32" fill="none" xmlns="http://www.w3.org/2000/svg">
<path d="M14.1332 18.4L11.2665 15.5333C11.0221 15.2888 10.7109 15.1666 10.3332 15.1666C9.95539 15.1666 9.64428 15.2888 9.39984 15.5333C9.15539 15.7777 9.03317 16.0888 9.03317 16.4666C9.03317 16.8444 9.15539 17.1555 9.39984 17.4L13.1998 21.2C13.4665 21.4666 13.7776 21.6 14.1332 21.6C14.4887 21.6 14.7998 21.4666 15.0665 21.2L22.5998 13.6666C22.8443 13.4222 22.9665 13.1111 22.9665 12.7333C22.9665 12.3555 22.8443 12.0444 22.5998 11.8C22.3554 11.5555 22.0443 11.4333 21.6665 11.4333C21.2887 11.4333 20.9776 11.5555 20.7332 11.8L14.1332 18.4ZM15.9998 29.3333C14.1554 29.3333 12.4221 28.9831 10.7998 28.2826C9.17762 27.5822 7.7665 26.6324 6.5665 25.4333C5.3665 24.2333 4.41673 22.8222 3.71717 21.2C3.01762 19.5777 2.66739 17.8444 2.6665 16C2.6665 14.1555 3.01673 12.4222 3.71717 10.8C4.41762 9.17774 5.36739 7.76663 6.5665 6.56663C7.7665 5.36663 9.17762 4.41685 10.7998 3.71729C12.4221 3.01774 14.1554 2.66751 15.9998 2.66663C17.8443 2.66663 19.5776 3.01685 21.1998 3.71729C22.8221 4.41774 24.2332 5.36752 25.4332 6.56663C26.6332 7.76663 27.5834 9.17774 28.2838 10.8C28.9843 12.4222 29.3341 14.1555 29.3332 16C29.3332 17.8444 28.9829 19.5777 28.2825 21.2C27.5821 22.8222 26.6323 24.2333 25.4332 25.4333C24.2332 26.6333 22.8221 27.5835 21.1998 28.284C19.5776 28.9844 17.8443 29.3342 15.9998 29.3333ZM15.9998 26.6666C18.9776 26.6666 21.4998 25.6333 23.5665 23.5666C25.6332 21.5 26.6665 18.9777 26.6665 16C26.6665 13.0222 25.6332 10.5 23.5665 8.43329C21.4998 6.36663 18.9776 5.33329 15.9998 5.33329C13.0221 5.33329 10.4998 6.36663 8.43317 8.43329C6.3665 10.5 5.33317 13.0222 5.33317 16C5.33317 18.9777 6.3665 21.5 8.43317 23.5666C10.4998 25.6333 13.0221 26.6666 15.9998 26.6666Z" fill="black"/>
</svg>
