<svg width="32" height="32" viewBox="0 0 32 32" fill="none" xmlns="http://www.w3.org/2000/svg">
<path d="M24.3332 4.33337C24.5748 4.33338 24.8083 4.4209 24.9904 4.57973C25.1725 4.73856 25.291 4.95797 25.3238 5.19737L25.3332 5.33337V26.6667C25.3331 26.9201 25.2368 27.164 25.0639 27.3491C24.8909 27.5342 24.6541 27.6468 24.4013 27.6641C24.1486 27.6813 23.8986 27.602 23.7021 27.4421C23.5056 27.2822 23.377 27.0537 23.3425 26.8027L23.3332 26.6667V20H20.3332C20.0915 20 19.858 19.9125 19.6759 19.7537C19.4938 19.5949 19.3754 19.3754 19.3425 19.136L19.3332 19V9.33337C19.3332 8.00729 19.86 6.73552 20.7976 5.79784C21.7353 4.86016 23.0071 4.33337 24.3332 4.33337ZM16.3332 4.33337C16.5748 4.33338 16.8083 4.4209 16.9904 4.57973C17.1725 4.73856 17.291 4.95797 17.3238 5.19737L17.3332 5.33337V10.6667C17.3332 13.2707 15.4665 15.4374 12.9998 15.9067V26.6667C12.9998 26.9201 12.9035 27.164 12.7305 27.3491C12.5576 27.5342 12.3208 27.6468 12.068 27.6641C11.8152 27.6813 11.5653 27.602 11.3688 27.4421C11.1722 27.2822 11.0437 27.0537 11.0092 26.8027L10.9998 26.6667V15.9067C9.82753 15.6826 8.76421 15.0719 7.97987 14.1722C7.19552 13.2726 6.73544 12.136 6.67317 10.944L6.6665 10.6667V5.33337C6.66658 5.08001 6.76283 4.83612 6.9358 4.65099C7.10877 4.46585 7.34557 4.35328 7.59834 4.33601C7.85112 4.31874 8.10103 4.39806 8.29757 4.55795C8.49411 4.71784 8.62264 4.94637 8.65717 5.19737L8.6665 5.33337V10.6667C8.6665 12.16 9.64784 13.4227 10.9998 13.848V5.33337C10.9999 5.08001 11.0962 4.83612 11.2691 4.65099C11.4421 4.46585 11.6789 4.35328 11.9317 4.33601C12.1845 4.31874 12.4344 4.39806 12.6309 4.55795C12.8274 4.71784 12.956 4.94637 12.9905 5.19737L12.9998 5.33337V13.8467C13.6361 13.6462 14.1976 13.2595 14.6119 12.7366C15.0262 12.2137 15.2742 11.5786 15.3238 10.9134L15.3332 10.6667V5.33337C15.3332 5.06816 15.4385 4.8138 15.6261 4.62627C15.8136 4.43873 16.068 4.33337 16.3332 4.33337ZM23.3332 18V6.50404C22.7851 6.69803 22.3051 7.04697 21.9514 7.50851C21.5978 7.97005 21.3858 8.52433 21.3412 9.10404L21.3332 9.33337V18H23.3332Z" fill="black"/>
</svg>
