<svg width="32" height="32" viewBox="0 0 32 32" fill="none" xmlns="http://www.w3.org/2000/svg">
<path d="M14.6665 17.3333V21.3333C14.6665 21.7111 14.7945 22.028 15.0505 22.284C15.3065 22.54 15.6229 22.6675 15.9998 22.6666C16.3776 22.6666 16.6945 22.5386 16.9505 22.2826C17.2065 22.0266 17.3341 21.7102 17.3332 21.3333V17.3333H21.3332C21.7109 17.3333 22.0278 17.2053 22.2838 16.9493C22.5398 16.6933 22.6674 16.3768 22.6665 16C22.6665 15.6222 22.5385 15.3053 22.2825 15.0493C22.0265 14.7933 21.7101 14.6657 21.3332 14.6666H17.3332V10.6666C17.3332 10.2888 17.2052 9.97196 16.9492 9.71596C16.6932 9.45996 16.3767 9.3324 15.9998 9.33329C15.6221 9.33329 15.3052 9.46129 15.0492 9.71729C14.7932 9.97329 14.6656 10.2897 14.6665 10.6666V14.6666H10.6665C10.2887 14.6666 9.97184 14.7946 9.71584 15.0506C9.45984 15.3066 9.33228 15.6231 9.33317 16C9.33317 16.3777 9.46117 16.6946 9.71717 16.9506C9.97317 17.2066 10.2896 17.3342 10.6665 17.3333H14.6665ZM15.9998 29.3333C14.1554 29.3333 12.4221 28.9831 10.7998 28.2826C9.17762 27.5822 7.7665 26.6324 6.5665 25.4333C5.3665 24.2333 4.41673 22.8222 3.71717 21.2C3.01762 19.5777 2.66739 17.8444 2.6665 16C2.6665 14.1555 3.01673 12.4222 3.71717 10.8C4.41762 9.17774 5.36739 7.76663 6.5665 6.56663C7.7665 5.36663 9.17762 4.41685 10.7998 3.71729C12.4221 3.01774 14.1554 2.66751 15.9998 2.66663C17.8443 2.66663 19.5776 3.01685 21.1998 3.71729C22.8221 4.41774 24.2332 5.36752 25.4332 6.56663C26.6332 7.76663 27.5834 9.17774 28.2838 10.8C28.9843 12.4222 29.3341 14.1555 29.3332 16C29.3332 17.8444 28.9829 19.5777 28.2825 21.2C27.5821 22.8222 26.6323 24.2333 25.4332 25.4333C24.2332 26.6333 22.8221 27.5835 21.1998 28.284C19.5776 28.9844 17.8443 29.3342 15.9998 29.3333ZM15.9998 26.6666C18.9776 26.6666 21.4998 25.6333 23.5665 23.5666C25.6332 21.5 26.6665 18.9777 26.6665 16C26.6665 13.0222 25.6332 10.5 23.5665 8.43329C21.4998 6.36663 18.9776 5.33329 15.9998 5.33329C13.0221 5.33329 10.4998 6.36663 8.43317 8.43329C6.3665 10.5 5.33317 13.0222 5.33317 16C5.33317 18.9777 6.3665 21.5 8.43317 23.5666C10.4998 25.6333 13.0221 26.6666 15.9998 26.6666Z" fill="black"/>
</svg>
