<svg width="32" height="32" viewBox="0 0 32 32" fill="none" xmlns="http://www.w3.org/2000/svg">
<path d="M10 12.0001C11.0609 12.0001 12.0783 11.5786 12.8284 10.8285C13.5786 10.0783 14 9.06092 14 8.00006C14 6.93919 13.5786 5.92177 12.8284 5.17163C12.0783 4.42148 11.0609 4.00006 10 4.00006C8.93913 4.00006 7.92172 4.42148 7.17157 5.17163C6.42143 5.92177 6 6.93919 6 8.00006C6 9.06092 6.42143 10.0783 7.17157 10.8285C7.92172 11.5786 8.93913 12.0001 10 12.0001ZM10 10.0001C9.46957 10.0001 8.96086 9.78934 8.58579 9.41427C8.21071 9.0392 8 8.53049 8 8.00006C8 7.46962 8.21071 6.96092 8.58579 6.58584C8.96086 6.21077 9.46957 6.00006 10 6.00006C10.5304 6.00006 11.0391 6.21077 11.4142 6.58584C11.7893 6.96092 12 7.46962 12 8.00006C12 8.53049 11.7893 9.0392 11.4142 9.41427C11.0391 9.78934 10.5304 10.0001 10 10.0001ZM4 15.6667C4 14.3787 5.04533 13.3334 6.33333 13.3334H13.6667C14.9547 13.3334 16 14.3787 16 15.6667V22.0001C16 23.5914 15.3679 25.1175 14.2426 26.2427C13.1174 27.3679 11.5913 28.0001 10 28.0001C8.4087 28.0001 6.88258 27.3679 5.75736 26.2427C4.63214 25.1175 4 23.5914 4 22.0001V15.6667ZM6.33333 15.3334C6.24493 15.3334 6.16014 15.3685 6.09763 15.431C6.03512 15.4935 6 15.5783 6 15.6667V22.0001C6 23.0609 6.42143 24.0783 7.17157 24.8285C7.92172 25.5786 8.93913 26.0001 10 26.0001C11.0609 26.0001 12.0783 25.5786 12.8284 24.8285C13.5786 24.0783 14 23.0609 14 22.0001V15.6667C14 15.5783 13.9649 15.4935 13.9024 15.431C13.8399 15.3685 13.7551 15.3334 13.6667 15.3334H6.33333ZM14.036 11.4854C14.6447 11.8279 15.3324 12.005 16.0307 11.9993C16.7291 11.9935 17.4138 11.8049 18.0167 11.4524C18.6196 11.0998 19.1197 10.5956 19.4672 9.98981C19.8147 9.38401 19.9976 8.69779 19.9976 7.99939C19.9976 7.30099 19.8147 6.61476 19.4672 6.00897C19.1197 5.40318 18.6196 4.89893 18.0167 4.5464C17.4138 4.19386 16.7291 4.00532 16.0307 3.99953C15.3324 3.99374 14.6447 4.1709 14.036 4.51339C14.472 5.01739 14.8147 5.60406 15.0387 6.24672C15.3432 6.07986 15.686 5.99517 16.0332 6.001C16.3805 6.00683 16.7202 6.10298 17.019 6.27997C17.3178 6.45697 17.5653 6.70871 17.7373 7.01043C17.9092 7.31215 17.9996 7.65344 17.9996 8.00072C17.9996 8.348 17.9092 8.6893 17.7373 8.99101C17.5653 9.29273 17.3178 9.54448 17.019 9.72147C16.7202 9.89847 16.3805 9.99461 16.0332 10.0004C15.686 10.0063 15.3432 9.92159 15.0387 9.75472C14.8167 10.3897 14.4765 10.977 14.036 11.4854ZM14.48 27.8054C15.3676 28.0378 16.2967 28.0636 17.1958 27.8807C18.095 27.6979 18.9402 27.3112 19.6665 26.7505C20.3928 26.1898 20.9808 25.47 21.3853 24.6465C21.7899 23.823 22.0002 22.9176 22 22.0001V15.6667C22 15.0479 21.7542 14.4544 21.3166 14.0168C20.879 13.5792 20.2855 13.3334 19.6667 13.3334H16.4933C16.9507 13.8867 17.248 14.5774 17.3173 15.3334H19.664C19.7524 15.3334 19.8372 15.3685 19.8997 15.431C19.9622 15.4935 19.9973 15.5783 19.9973 15.6667V22.0001C19.9974 23.0349 19.5964 24.0294 18.8786 24.7748C18.1608 25.5202 17.1821 25.9584 16.148 25.9974C15.696 26.6907 15.1333 27.3014 14.48 27.8054ZM20.036 11.4854C20.6447 11.8279 21.3324 12.005 22.0307 11.9993C22.7291 11.9935 23.4138 11.8049 24.0167 11.4524C24.6196 11.0998 25.1197 10.5956 25.4672 9.98981C25.8147 9.38401 25.9976 8.69779 25.9976 7.99939C25.9976 7.30099 25.8147 6.61476 25.4672 6.00897C25.1197 5.40318 24.6196 4.89893 24.0167 4.5464C23.4138 4.19386 22.7291 4.00532 22.0307 3.99953C21.3324 3.99374 20.6447 4.1709 20.036 4.51339C20.472 5.01739 20.8147 5.60406 21.0387 6.24672C21.3432 6.07986 21.686 5.99517 22.0332 6.001C22.3805 6.00683 22.7202 6.10298 23.019 6.27997C23.3178 6.45697 23.5653 6.70871 23.7373 7.01043C23.9092 7.31215 23.9996 7.65344 23.9996 8.00072C23.9996 8.348 23.9092 8.6893 23.7373 8.99101C23.5653 9.29273 23.3178 9.54448 23.019 9.72147C22.7202 9.89847 22.3805 9.99461 22.0332 10.0004C21.686 10.0063 21.3432 9.92159 21.0387 9.75472C20.8167 10.3897 20.4765 10.977 20.036 11.4854ZM20.48 27.8054C21.3676 28.0378 22.2967 28.0636 23.1958 27.8807C24.095 27.6979 24.9402 27.3112 25.6665 26.7505C26.3928 26.1898 26.9808 25.47 27.3853 24.6465C27.7899 23.823 28.0002 22.9176 28 22.0001V15.6667C28 15.0479 27.7542 14.4544 27.3166 14.0168C26.879 13.5792 26.2855 13.3334 25.6667 13.3334H22.4933C22.9507 13.8867 23.2493 14.5774 23.3173 15.3334H25.664C25.7524 15.3334 25.8372 15.3685 25.8997 15.431C25.9622 15.4935 25.9973 15.5783 25.9973 15.6667V22.0001C25.9974 23.0349 25.5964 24.0294 24.8786 24.7748C24.1608 25.5202 23.1821 25.9584 22.148 25.9974C21.696 26.6907 21.1333 27.3014 20.48 27.8054Z" fill="black"/>
</svg>
