<svg width="112" height="41" viewBox="0 0 112 41" fill="none" xmlns="http://www.w3.org/2000/svg">
<path d="M8.44922 15.9453H1.99219V10.2852H20.2266V11.7148L13.0078 23.6445H20.2266V29H1.27734V27.9219L8.44922 15.9453ZM24.668 27.7109C24.043 27.125 23.543 26.3906 23.168 25.5078C22.8008 24.6172 22.6172 23.6602 22.6172 22.6367C22.6172 21.6133 22.7188 20.7266 22.9219 19.9766C23.3281 18.4844 24.0391 17.2305 25.0547 16.2148C25.5391 15.7148 26.0781 15.293 26.6719 14.9492C27.8906 14.2383 29.1758 13.8828 30.5273 13.8828C31.8867 13.8828 33.0781 14.332 34.1016 15.2305C34.4297 15.5195 34.7148 15.8516 34.957 16.2266L36.6328 14.4336H40.4766V29H36.6328L34.957 26.5742C33.6758 28.4648 31.7344 29.4141 29.1328 29.4219C28.4141 29.4297 27.6445 29.2891 26.8242 29C26.0117 28.7188 25.293 28.2891 24.668 27.7109ZM34.1602 18.8516C33.8789 18.6875 33.543 18.6055 33.1523 18.6055C32.7617 18.6055 32.3477 18.7461 31.9102 19.0273C31.4805 19.3008 31.0938 19.6484 30.75 20.0703C29.9844 21.0156 29.6016 21.9766 29.6016 22.9531C29.6016 23.6406 29.8125 24.125 30.2344 24.4062C30.625 24.6641 31.2188 24.6289 32.0156 24.3008C32.8203 23.9648 33.5352 23.5312 34.1602 23V18.8516ZM51.1758 18.3945C50.5508 18.3945 50.2383 18.8984 50.2383 19.9062V29H43.2773V14.4336H47.1211L48.7969 16.707C49.4219 15.8398 50.2852 15.1523 51.3867 14.6445C52.4961 14.1367 53.5312 13.8828 54.4922 13.8828C56.2578 13.8828 57.6562 14.3516 58.6875 15.2891C59.7266 16.2266 60.2461 17.4844 60.2461 19.0625V29H53.2383V21.9688C53.2383 19.5859 52.5508 18.3945 51.1758 18.3945ZM68.2852 35V30.8516C68.6836 30.8984 69.1172 30.9648 69.5859 31.0508C70.0625 31.1367 70.5234 31.1797 70.9688 31.1797C71.4141 31.1797 71.8242 31.1289 72.1992 31.0273C72.582 30.9258 72.9219 30.7266 73.2188 30.4297C73.8594 29.7891 74.1836 28.7109 74.1914 27.1953C72.8242 28.6875 71.168 29.4336 69.2227 29.4336C67.2852 29.4414 65.668 28.8281 64.3711 27.5938C63.082 26.3594 62.4375 24.5977 62.4375 22.3086C62.4375 20.668 62.7969 19.2109 63.5156 17.9375C64.2344 16.6562 65.1992 15.6602 66.4102 14.9492C67.6289 14.2383 68.9219 13.8828 70.2891 13.8828C71.6641 13.8828 72.8516 14.332 73.8516 15.2305C74.1797 15.5195 74.4609 15.8516 74.6953 16.2266L76.3828 14.4336H80.2148V29C80.2227 32.0078 78.8672 33.9844 76.1484 34.9297C75.0547 35.3125 73.8008 35.5039 72.3867 35.5039C70.9805 35.5039 69.6133 35.3359 68.2852 35ZM73.9102 18.8516C73.6289 18.6875 73.332 18.6055 73.0195 18.6055C72.7148 18.6055 72.418 18.668 72.1289 18.793C71.5352 19.0508 71.0039 19.4688 70.5352 20.0469C69.7461 20.9609 69.3516 21.9297 69.3516 22.9531C69.3516 23.6406 69.5547 24.125 69.9609 24.4062C70.3047 24.6328 70.8359 24.6289 71.5547 24.3945C72.2422 24.168 73.0273 23.7109 73.9102 23.0234V18.8516ZM110.824 24.2188C110.855 25.4062 110.871 27.1289 110.871 29.3867C110.512 29.4336 110.152 29.457 109.793 29.457C108.137 29.457 106.469 28.9102 104.789 27.8164C103.016 28.9102 101 29.457 98.7422 29.457C96.9609 29.457 95.2734 29.0469 93.6797 28.2266C92.0938 27.3984 90.8086 26.2344 89.8242 24.7344C88.8477 23.2266 88.3594 21.5117 88.3594 19.5898C88.3594 17.6602 88.8281 15.9531 89.7656 14.4688C90.7031 12.9844 91.9609 11.8281 93.5391 11C95.1172 10.1719 96.8516 9.75781 98.7422 9.75781C101.773 9.75781 104.289 10.6328 106.289 12.3828C108.336 14.1797 109.359 16.7109 109.359 19.9766C109.359 21.2266 109.066 22.4844 108.48 23.75C109.418 24.0625 110.199 24.2188 110.824 24.2188ZM101.145 20.2461C101.707 19.1211 101.988 18.125 101.988 17.2578C101.996 16.3906 101.656 15.8242 100.969 15.5586C100.734 15.4648 100.457 15.418 100.137 15.418C99.8242 15.418 99.5078 15.5117 99.1875 15.6992C98.875 15.8867 98.5664 16.1367 98.2617 16.4492C97.6367 17.0898 97.0977 17.8906 96.6445 18.8516C96.1914 19.8047 95.9648 20.6602 95.9648 21.418C95.9648 22.7148 96.6211 23.3633 97.9336 23.3633C98.3477 23.3633 98.8008 23.1484 99.293 22.7188C99.0039 22.3906 98.7188 22.0586 98.4375 21.7227C98.1562 21.3867 97.875 21.0508 97.5938 20.7148L98.8711 18.8047C99.5117 19.2422 100.27 19.7227 101.145 20.2461Z" fill="#FF20B1"/>
</svg>
